<svg xmlns="http://www.w3.org/2000/svg"  viewBox="0 0 32 32" width="32px" height="32px"><rect width="4" height="4" x="14" y="17" fill="#0f518c"/><rect width="12" height="4" x="10" y="2" fill="#20528e"/><circle cx="25" cy="20" r="4" fill="#ed0049"/><path fill="#ed0049" d="M25,25L25,25c-3.866,0-7,3.134-7,7v0h14v0C32,28.134,28.866,25,25,25z"/><g><path fill="#0f518c" d="M31,20V6h-4v8.35C29.327,15.176,31,17.394,31,20z"/><path fill="#0f518c" d="M7,27v-6h5v-4H5V6H1v15h2v10h13.069c0.164-1.472,0.686-2.83,1.475-4H7z"/></g></svg>